# xmcd CD database file
#
# Track frame offsets:
#	150
#	27334
#	50215
#	71353
#	90248
#	133055
#	162845
#	174865
#	205429
#	233379
#
# Disc length: 3381 seconds
#
# Revision: 0
# Processed by: cddbd v1.4PL0 Copyright (c) Steve Scherf et al.
# Submitted via: CDex 1.50Beta7
#
DISCID=7b0d330a
DTITLE=Pepa Päivinen Trio - Funfaraway
DYEAR=2001
DGENRE=Jazz
TTITLE0=We'll see
TTITLE1=Mökö
TTITLE2=Kuluk
TTITLE3=Sleeping Gopal
TTITLE4=Sieluni rakkaus ja sen vastaus
TTITLE5=Leijona
TTITLE6=Deux loutres
TTITLE7=Loihdinta
TTITLE8=Funfaraway
TTITLE9=Calme senza misura
EXTD=YEAR: 2001
EXTT0=
EXTT1=
EXTT2=
EXTT3=
EXTT4=
EXTT5=
EXTT6=
EXTT7=
EXTT8=
EXTT9=
PLAYORDER=
